<?xml version="1.0" encoding="utf-8"?>
<!-- Generator: Adobe Illustrator 22.0.0, SVG Export Plug-In . SVG Version: 6.00 Build 0)  -->
<svg version="1.1" id="Layer_1" xmlns="http://www.w3.org/2000/svg" xmlns:xlink="http://www.w3.org/1999/xlink" x="0px" y="0px"
	 viewBox="0 0 238.6 38.9" style="enable-background:new 0 0 238.6 38.9;" xml:space="preserve">
<style type="text/css">
	.st0{fill:#EE4338;}
	.st1{fill:#062022;}
	.st2{fill:#FFFFFF;}
</style>
<rect x="160.6" y="-0.2" class="st0" width="78.2" height="39.6"/>
<g>
	<rect x="29.5" y="0" class="st0" width="8.7" height="39.2"/>
	<rect x="0.2" y="0" class="st0" width="8.7" height="39.2"/>
	<rect x="12.2" y="16.2" class="st0" width="14.5" height="6.7"/>
</g>
<path class="st1" d="M61.5,7v9.7h10.2V7h5.6v25.3h-5.6V21.3H61.5v10.9h-5.6V7H61.5z"/>
<path class="st1" d="M82.6,14.5c0.6-1.6,1.4-3,2.4-4.2c1.1-1.2,2.4-2.1,3.9-2.8c1.5-0.7,3.3-1,5.2-1c2,0,3.7,0.3,5.2,1
	c1.5,0.7,2.8,1.6,3.9,2.8c1.1,1.2,1.9,2.6,2.4,4.2c0.6,1.6,0.8,3.4,0.8,5.3c0,1.8-0.3,3.6-0.8,5.1c-0.6,1.6-1.4,3-2.4,4.2
	c-1.1,1.2-2.4,2.1-3.9,2.8c-1.5,0.7-3.3,1-5.2,1c-1.9,0-3.7-0.3-5.2-1c-1.5-0.7-2.8-1.6-3.9-2.8c-1.1-1.2-1.9-2.6-2.4-4.2
	c-0.6-1.6-0.8-3.3-0.8-5.1C81.7,17.8,82,16.1,82.6,14.5z M87.7,22.8c0.2,1,0.6,1.9,1.2,2.7c0.5,0.8,1.2,1.4,2.1,1.9
	c0.9,0.5,1.9,0.7,3.2,0.7c1.2,0,2.3-0.2,3.2-0.7c0.9-0.5,1.6-1.1,2.1-1.9c0.5-0.8,0.9-1.7,1.2-2.7c0.2-1,0.4-2,0.4-3.1
	c0-1.1-0.1-2.2-0.4-3.2c-0.2-1-0.6-2-1.2-2.8c-0.5-0.8-1.3-1.5-2.1-1.9c-0.9-0.5-1.9-0.7-3.2-0.7c-1.3,0-2.3,0.2-3.2,0.7
	c-0.9,0.5-1.6,1.1-2.1,1.9c-0.5,0.8-0.9,1.7-1.2,2.8c-0.2,1-0.4,2.1-0.4,3.2C87.3,20.8,87.4,21.8,87.7,22.8z"/>
<path class="st1" d="M115.3,26c0.3,0.6,0.7,1.1,1.2,1.4c0.5,0.4,1.1,0.6,1.8,0.8c0.7,0.2,1.4,0.3,2.1,0.3c0.5,0,1,0,1.6-0.1
	c0.6-0.1,1.1-0.2,1.6-0.5c0.5-0.2,0.9-0.6,1.2-1c0.3-0.4,0.5-0.9,0.5-1.6c0-0.7-0.2-1.2-0.7-1.7c-0.4-0.4-1-0.8-1.7-1.1
	c-0.7-0.3-1.5-0.5-2.4-0.7c-0.9-0.2-1.8-0.4-2.7-0.7c-0.9-0.2-1.9-0.5-2.8-0.9c-0.9-0.3-1.7-0.8-2.4-1.3c-0.7-0.5-1.3-1.2-1.7-2
	c-0.4-0.8-0.7-1.8-0.7-3c0-1.3,0.3-2.4,0.8-3.4c0.6-1,1.3-1.8,2.2-2.4c0.9-0.6,1.9-1.1,3-1.4c1.1-0.3,2.3-0.5,3.4-0.5
	c1.3,0,2.6,0.1,3.8,0.4c1.2,0.3,2.3,0.8,3.2,1.4c0.9,0.7,1.7,1.5,2.2,2.5c0.6,1,0.8,2.3,0.8,3.7h-5.4c0-0.8-0.2-1.4-0.5-1.9
	c-0.3-0.5-0.6-0.9-1.1-1.2c-0.4-0.3-1-0.5-1.5-0.6c-0.6-0.1-1.2-0.2-1.9-0.2c-0.4,0-0.9,0-1.3,0.1c-0.4,0.1-0.9,0.3-1.2,0.5
	c-0.4,0.2-0.7,0.5-0.9,0.9c-0.2,0.4-0.4,0.8-0.4,1.3c0,0.5,0.1,0.9,0.3,1.2c0.2,0.3,0.6,0.6,1.1,0.8c0.6,0.3,1.3,0.5,2.3,0.8
	c1,0.3,2.3,0.6,3.8,1c0.5,0.1,1.1,0.3,2,0.5c0.8,0.2,1.7,0.6,2.5,1.2c0.8,0.5,1.5,1.3,2.1,2.2c0.6,0.9,0.9,2.1,0.9,3.5
	c0,1.2-0.2,2.2-0.7,3.2c-0.4,1-1.1,1.8-2,2.6c-0.9,0.7-2,1.3-3.3,1.7c-1.3,0.4-2.8,0.6-4.5,0.6c-1.4,0-2.7-0.2-4-0.5
	c-1.3-0.3-2.5-0.9-3.5-1.6c-1-0.7-1.8-1.7-2.4-2.8c-0.6-1.1-0.9-2.5-0.8-4h5.4C114.8,24.7,115,25.4,115.3,26z"/>
<path class="st1" d="M132.7,11.6V7h20.7v4.7h-7.6v20.6h-5.6V11.6H132.7z"/>
<g>
	<path class="st2" d="M171.5,7v20.6h12.3v4.7H166V7H171.5z"/>
	<path class="st2" d="M200.3,7l9.4,25.3h-5.8l-1.9-5.6h-9.4l-2,5.6H185L194.6,7H200.3z M200.6,22.5l-3.2-9.3h-0.1l-3.3,9.3H200.6z"
		/>
	<path class="st2" d="M224.5,7c1.2,0,2.3,0.1,3.3,0.3c1,0.2,1.8,0.6,2.5,1c0.7,0.5,1.3,1.1,1.6,1.9c0.4,0.8,0.6,1.8,0.6,3
		c0,1.3-0.3,2.3-0.9,3.2c-0.6,0.8-1.4,1.5-2.6,2.1c1.6,0.4,2.7,1.2,3.5,2.4c0.8,1.1,1.1,2.5,1.1,4c0,1.3-0.2,2.4-0.7,3.3
		c-0.5,0.9-1.2,1.7-2,2.3c-0.8,0.6-1.8,1-2.9,1.3c-1.1,0.3-2.2,0.4-3.3,0.4h-12.2V7H224.5z M223.8,17.2c1,0,1.8-0.2,2.4-0.7
		c0.6-0.5,1-1.2,1-2.3c0-0.6-0.1-1.1-0.3-1.5c-0.2-0.4-0.5-0.7-0.8-0.9c-0.4-0.2-0.8-0.4-1.2-0.4c-0.5-0.1-0.9-0.1-1.4-0.1h-5.2v5.9
		H223.8z M224.1,27.9c0.5,0,1.1-0.1,1.6-0.2c0.5-0.1,0.9-0.3,1.3-0.5c0.4-0.2,0.7-0.6,0.9-1c0.2-0.4,0.3-1,0.3-1.6
		c0-1.3-0.4-2.2-1.1-2.8c-0.7-0.6-1.7-0.8-2.9-0.8h-6v6.9H224.1z"/>
</g>
</svg>
